<svg xmlns="http://www.w3.org/2000/svg" width="32" height="32" viewBox="0 0 32 32"><defs><style>.cls-1 { fill: #4724f4; fill-rule: evenodd; }</style></defs><path id="application-centric-management.svg" class="cls-1" d="M1005 5071h-26a3 3 0 0 1-3-3v-26a3 3 0 0 1 3-3h26a3 3 0 0 1 3 3v26a3 3 0 0 1-3 3zm1-29a1 1 0 0 0-1-1h-26a.994.994 0 0 0-1 1v26a1 1 0 0 0 1 1h26a1 1 0 0 0 1-1v-26zm-4 22h-16v2h-2v-2h-2a1 1 0 1 1 0-2h2v-2h2v2h16a1 1 0 0 1 0 2zm0-8h-2v2h-2v-2h-16a1 1 0 1 1 0-2h16v-2h2v2h2a1 1 0 0 1 0 2zm0-8h-10v2h-2v-2h-8a1 1 0 1 1 0-2h8v-2h2v2h10a1 1 0 0 1 0 2z" transform="translate(-976 -5039)"/></svg>