<svg xmlns="http://www.w3.org/2000/svg" width="32" height="32" viewBox="0 0 32 32"><defs><style>.cls-1 { fill: #4724f4; fill-rule: evenodd; }</style></defs><path id="auto-scaling.svg" class="cls-1" d="M1288 5072h-24a4 4 0 0 1-4-4v-24a4 4 0 0 1 4-4h24a4 4 0 0 1 4 4v24a4 4 0 0 1-4 4zm2-28a2 2 0 0 0-2-2h-24a2 2 0 0 0-2 2v24a2.006 2.006 0 0 0 2 2h24a2.006 2.006 0 0 0 2-2v-24zm-3 10a1 1 0 0 1-1-1v-5.6l-7.31 7.31a.99.99 0 0 1-1.4-1.4l7.31-7.31h-5.6a1 1 0 0 1 0-2h8.04a.984.984 0 0 1 .63.27.227.227 0 0 1 .04.01l.02.04a1.025 1.025 0 0 1 .26.64.227.227 0 0 1 .01.04v8a1 1 0 0 1-1 1zm-19.6 12h5.6a1 1 0 0 1 0 2h-8a.227.227 0 0 1-.04-.01 1 1 0 0 1-.63-.26l-.04-.02a.076.076 0 0 1-.02-.04.967.967 0 0 1-.26-.63.227.227 0 0 0-.01-.04v-8a1 1 0 0 1 2 0v5.59l7.31-7.31a.993.993 0 0 1 1.4 1.41z" transform="translate(-1260 -5040)"/></svg>