<svg id="icon-pricing.svg" xmlns="http://www.w3.org/2000/svg" width="48.12" height="48.09" viewBox="0 0 48.12 48.09">
  <defs>
    <style>
      .cls-1 {
        fill: none;
        stroke: #1fd17f;
        stroke-width: 2px;
        fill-rule: evenodd;
      }
    </style>
  </defs>
  <path id="Layer-1" class="cls-1" d="M1120.09,1858.46l7.14-2.4a2.4,2.4,0,0,1,2.26.53l10.96,10.97a2.371,2.371,0,0,1,.52,2.25l-2.48,7.12a7.123,7.123,0,0,1-1.41,2.25c-20.46,20.48-22.46,22.48-22.46,22.48a1.37,1.37,0,0,1-1.93,0l-17.35-17.37a1.37,1.37,0,0,1,0-1.93l22.49-22.5h0A6.9,6.9,0,0,1,1120.09,1858.46Zm10.83,12.74a3.408,3.408,0,1,0-4.82,0h0A3.41,3.41,0,0,0,1130.92,1871.2Z" transform="translate(-1093.94 -1854.97)"/>
  <path id="Layer-2" class="cls-1" d="M1109.61,1878.37l9,9a2.74,2.74,0,0,1,0,3.86l-2.57,2.57a2.722,2.722,0,0,1-3.86,0l-9-9a2.74,2.74,0,0,1,0-3.86l2.57-2.57h0A2.74,2.74,0,0,1,1109.61,1878.37Z" transform="translate(-1093.94 -1854.97)"/>
  <path id="Layer-3" class="cls-1" d="M1140.9,1856.07l-9.98,9.99" transform="translate(-1093.94 -1854.97)"/>
</svg>
