<svg xmlns="http://www.w3.org/2000/svg" width="32" height="32" viewBox="0 0 32 32"><defs><style>.cls-1 { fill: #4724f4; fill-rule: evenodd; }</style></defs><path id="composable-api.svg" class="cls-1" d="M721 5059l-2.557.42a11.835 11.835 0 0 1-.929 2.25l1.506 2.1a2 2 0 0 1 0 2.83l-1.414 1.42a2 2 0 0 1-2.828 0l-2.109-1.51a12.4 12.4 0 0 1-2.243.93l-.426 2.56a2 2 0 0 1-2 2h-2a2 2 0 0 1-2-2l-.426-2.56a12.4 12.4 0 0 1-2.243-.93l-2.109 1.51a2 2 0 0 1-2.828 0l-1.414-1.42a2 2 0 0 1 0-2.83l1.506-2.1a11.835 11.835 0 0 1-.929-2.25l-2.557-.42a2 2 0 0 1-2-2v-2a2 2 0 0 1 2-2l2.557-.43a11.744 11.744 0 0 1 .929-2.24l-1.506-2.11a2 2 0 0 1 0-2.83l1.414-1.42a2 2 0 0 1 2.828 0l2.109 1.51a12.4 12.4 0 0 1 2.243-.93l.426-2.55a2 2 0 0 1 2-2h2a2 2 0 0 1 2 2l.427 2.55a12.434 12.434 0 0 1 2.243.93l2.109-1.51a2 2 0 0 1 2.828 0l1.414 1.42a2 2 0 0 1 0 2.83l-1.506 2.11a11.744 11.744 0 0 1 .929 2.24l2.556.43a2 2 0 0 1 2 2v2a2 2 0 0 1-2 2zm-1-4l-3.14-.53a9.93 9.93 0 0 0-1.815-4.36l1.854-2.6a1 1 0 0 0-1.414-1.41l-2.6 1.85a9.97 9.97 0 0 0-4.361-1.8l-.524-3.15a1 1 0 0 0-2 0l-.526 3.15a9.965 9.965 0 0 0-4.361 1.8l-2.6-1.85a1 1 0 0 0-1.414 1.41l1.854 2.6a9.93 9.93 0 0 0-1.815 4.36l-3.138.53a1 1 0 1 0 0 2l3.14.52a9.969 9.969 0 0 0 1.815 4.37l-1.854 2.59a1 1 0 0 0 1.414 1.42l2.6-1.86a9.965 9.965 0 0 0 4.361 1.8l.524 3.16a1 1 0 0 0 2 0l.525-3.16a9.965 9.965 0 0 0 4.361-1.8l2.6 1.86a1 1 0 0 0 1.414-1.42l-1.854-2.59a9.969 9.969 0 0 0 1.815-4.37l3.139-.52a1 1 0 0 0 0-2zm-13 6a5 5 0 1 1 5-5 5 5 0 0 1-5 5zm0-8a3 3 0 1 0 3 3 3 3 0 0 0-3-3z" transform="translate(-691 -5040)"/></svg>