<svg xmlns="http://www.w3.org/2000/svg" width="250" height="59" viewBox="0 0 250 59"><defs><style>.cls-1 { fill: #070430; fill-rule: evenodd; }</style></defs><path id="crunch-fund.svg" class="cls-1" d="M737.689 8615.48a10.566 10.566 0 0 1 7.889 3.25l-2.357 2.6a7.5 7.5 0 0 0-5.532-2.37 8 8 0 0 0 0 15.99 7.541 7.541 0 0 0 5.532-2.37l2.357 2.59a10.529 10.529 0 0 1-7.889 3.25 11.47 11.47 0 0 1 0-22.94m14.143 6.89v1.55a4.993 4.993 0 0 1 4.053-1.77 6.615 6.615 0 0 1 1.131.09v3.64a5.535 5.535 0 0 0-1.727-.22 3.64 3.64 0 0 0-3.457 1.89v10.62h-3.458v-15.8h3.458zm14.047 16.05c-3.9 0-6.381-2.71-6.381-6.79v-9.26h3.458v9.2a3.516 3.516 0 0 0 3.582 3.54 3.755 3.755 0 0 0 3.74-2.69v-10.05h3.458v15.8h-3.458v-1.45a5.9 5.9 0 0 1-4.4 1.7m15.712-16.05v1.48a5.924 5.924 0 0 1 4.4-1.73c3.9 0 6.38 2.71 6.38 6.79v9.26h-3.458v-9.2a3.5 3.5 0 0 0-3.582-3.54 3.74 3.74 0 0 0-3.74 2.79v9.95h-3.457v-15.8h3.457zm22.03-.25a7.961 7.961 0 0 1 6 2.62l-2.356 2.43a4.693 4.693 0 0 0-3.646-1.67 4.775 4.775 0 0 0 0 9.54 4.661 4.661 0 0 0 3.646-1.67l2.356 2.43a8.142 8.142 0 1 1-6-13.68m12.758-6.39v8.13a5.894 5.894 0 0 1 4.4-1.74c3.9 0 6.38 2.71 6.38 6.79v9.26h-3.458v-9.2a3.5 3.5 0 0 0-3.581-3.54 3.742 3.742 0 0 0-3.741 2.79v9.95h-3.457v-22.44h3.457zm28.1 0v3.61h-9.3v5.68h7.26v3.54h-7.26v9.61h-3.645v-22.44h12.948zm8.139 22.69c-3.9 0-6.38-2.71-6.38-6.79v-9.26h3.457v9.2a3.517 3.517 0 0 0 3.582 3.54 3.755 3.755 0 0 0 3.74-2.69v-10.05h3.458v15.8h-3.458v-1.45a5.9 5.9 0 0 1-4.4 1.7m15.712-16.05v1.48a5.924 5.924 0 0 1 4.4-1.73c3.9 0 6.381 2.71 6.381 6.79v9.26h-3.459v-9.2a3.5 3.5 0 0 0-3.581-3.54 3.742 3.742 0 0 0-3.741 2.79v9.95h-3.457v-15.8h3.457zm26.211 5.21a5.042 5.042 0 0 0-4.181-2.15 4.849 4.849 0 0 0 0 9.68 5.042 5.042 0 0 0 4.181-2.15v-5.38zm-4.213 10.84a8.15 8.15 0 0 1 0-16.3 6.614 6.614 0 0 1 4.213 1.42v-7.81h3.456v22.44h-3.456v-1.14a6.6 6.6 0 0 1-4.213 1.39zm-217.76-5.83a5.5 5.5 0 0 1-3.865-1.57 5.322 5.322 0 0 1 0-7.61 5.542 5.542 0 0 1 7.73 0l1.894-1.86a8.232 8.232 0 0 0-11.518 0 7.918 7.918 0 0 0 0 11.33 8.232 8.232 0 0 0 11.518 0l-1.894-1.86a5.5 5.5 0 0 1-3.865 1.57m15.694-11.99l-1.945-1.92-8.674 8.53 8.674 8.54 1.945-1.92-6.728-6.62zm-3.589 6.62l1.818 1.78 3.3-3.24-1.818-1.79zm-7.168-29.23a29.51 29.51 0 1 0 29.5 29.51 29.542 29.542 0 0 0-29.503-29.51zm0 55.9a26.39 26.39 0 1 1 26.381-26.39 26.417 26.417 0 0 1-26.384 26.39z" transform="translate(-648 -8598)"/></svg>