<svg id="footer-logo.svg" xmlns="http://www.w3.org/2000/svg" width="143.406" height="36.19" viewBox="0 0 143.406 36.19">
  <defs>
    <style>
      .cls-1, .cls-2 {
        fill: #070430;
        fill-rule: evenodd;
      }

      .cls-1 {
        opacity: 0.6;
      }
    </style>
  </defs>
  <path id="By_Overclock_Labs" data-name="By Overclock Labs" class="cls-1" d="M435.807,9430.81h3.185c1.859,0,3.055-.85,3.055-2.6v-0.06a2.042,2.042,0,0,0-1.859-2.22,1.9,1.9,0,0,0,1.4-1.96v-0.05c0-1.84-1.261-2.41-2.99-2.41h-2.795v9.3Zm1.1-.89v-3.47h1.9c1.5,0,2.132.55,2.132,1.69v0.05c0,1.13-.624,1.73-1.976,1.73h-2.054Zm0-4.35v-3.18h1.664c1.3,0,1.911.43,1.911,1.49v0.05c0,1.14-.52,1.64-1.885,1.64h-1.69Zm7.579,7.6h1.092l3.758-9.16h-1.105l-1.886,4.87-2.08-4.87h-1.157l2.665,6.09Zm14.2-3.18a3.5,3.5,0,0,1-3.433-3.79v-0.1c0-2.21,1.248-3.8,3.407-3.8s3.367,1.69,3.367,3.77v0.11C462.029,9428.43,460.755,9429.99,458.688,9429.99Zm0,0.93a4.483,4.483,0,0,0,4.511-4.73v-0.1a4.559,4.559,0,1,0-9.114.02v0.11A4.525,4.525,0,0,0,458.688,9430.92Zm8.15-.11h1.378l2.445-6.8h-1.118l-1.99,5.7-2.015-5.7h-1.17Zm7.956,0.11c1.535,0,2.666-.71,2.9-2.08h-1.079a1.543,1.543,0,0,1-1.808,1.19c-1.391,0-2.132-.86-2.184-2.41h5.123v-0.35c0-2.43-1.482-3.38-3.056-3.38a3.2,3.2,0,0,0-3.185,3.48v0.11A3.193,3.193,0,0,0,474.794,9430.92Zm-2.132-4.17a2.035,2.035,0,0,1,2.028-1.96,1.808,1.808,0,0,1,1.951,1.96h-3.979Zm6.864,4.06h1.079v-3.74c0-1.67.871-2.1,2.236-2.17v-1.01a2.371,2.371,0,0,0-2.236,1.34v-1.22h-1.079v6.8Zm7.644,0.11a2.837,2.837,0,0,0,2.965-2.56h-1a1.839,1.839,0,0,1-1.951,1.67c-1.313,0-2.223-.89-2.223-2.55v-0.11a2.286,2.286,0,0,1,2.184-2.58,1.7,1.7,0,0,1,1.886,1.48H490.1a2.669,2.669,0,0,0-2.952-2.38,3.3,3.3,0,0,0-3.3,3.48v0.11A3.232,3.232,0,0,0,487.17,9430.92Zm4.745-.11h1.092v-10.05h-1.092v10.05Zm6.266-.78c-1.378,0-2.223-1.02-2.223-2.57v-0.1c0-1.56.858-2.57,2.223-2.57s2.224,1.01,2.224,2.58v0.09C500.405,9429,499.546,9430.03,498.181,9430.03Zm-0.013.89a3.278,3.278,0,0,0,3.355-3.47v-0.1a3.344,3.344,0,1,0-6.683.01v0.1A3.288,3.288,0,0,0,498.168,9430.92Zm7.982,0a2.838,2.838,0,0,0,2.965-2.56h-1a1.838,1.838,0,0,1-1.95,1.67c-1.313,0-2.223-.89-2.223-2.55v-0.11a2.286,2.286,0,0,1,2.184-2.58,1.7,1.7,0,0,1,1.885,1.48h1.067a2.67,2.67,0,0,0-2.952-2.38,3.3,3.3,0,0,0-3.3,3.48v0.11A3.232,3.232,0,0,0,506.15,9430.92Zm4.719-.11h1.079v-3.53l3.016,3.53h1.314l-3.16-3.64,2.912-3.16h-1.261l-2.821,3.13v-6.38h-1.079v10.05Zm10.491,0h5.382v-0.93h-4.251v-8.37H521.36v9.3Zm8.71,0.11a2.464,2.464,0,0,0,2.119-.97v0.86h1.079v-4.49a2.192,2.192,0,0,0-2.483-2.43c-1.313,0-2.548.57-2.691,2.12h1.079a1.337,1.337,0,0,1,1.56-1.22,1.273,1.273,0,0,1,1.456,1.53v0.49h-0.975c-1.742,0-3.406.54-3.406,2.11A1.971,1.971,0,0,0,530.07,9430.92Zm0.1-.86a1.065,1.065,0,0,1-1.287-1.14c0-1,1-1.34,2.366-1.34h0.936v0.85A1.742,1.742,0,0,1,530.174,9430.06Zm8.723,0.86c1.872,0,3.095-1.43,3.095-3.51v-0.1a3.093,3.093,0,0,0-3.095-3.42,2.8,2.8,0,0,0-2.3,1.26v-4.39h-1.079v10.05H536.6v-1.12A2.6,2.6,0,0,0,538.9,9430.92Zm-0.1-.89c-1.326,0-2.236-.82-2.236-2.57v-0.1c0-1.74.962-2.57,2.223-2.57,1.144,0,2.093.85,2.093,2.57v0.1C540.873,9429.12,540.145,9430.03,538.793,9430.03Zm7.111,0.89c1.651,0,2.5-.83,2.5-2.06,0-1.45-.988-1.76-2.392-2.02-1.248-.22-1.586-0.47-1.586-1.08a1.093,1.093,0,0,1,1.287-.97,1.231,1.231,0,0,1,1.43,1.06h1.04a2.168,2.168,0,0,0-2.457-1.96,2.116,2.116,0,0,0-2.3,1.91c0,1.18.6,1.68,2.366,2,1.053,0.2,1.586.43,1.586,1.15s-0.455,1.08-1.482,1.08a1.36,1.36,0,0,1-1.6-1.32h-1.053C543.3,9430.1,544.279,9430.92,545.9,9430.92Z" transform="translate(-405 -9397)"/>
  <path class="cls-2" d="M415,9397l-10,5.3,10,4.78v10.5l-10-4.86v10.46l10,4.83v-10.43l10-5.3v-9.98Z" transform="translate(-405 -9397)"/>
  <path class="cls-2" d="M446.574,9405.45c0,2.8-1.9,4.39-4.948,4.39h-2.864v4.02H436v-12.74h5.628C444.671,9401.12,446.574,9402.65,446.574,9405.45Zm-2.8.02a1.947,1.947,0,0,0-2.144-2.06h-2.864v4.16h2.864A1.966,1.966,0,0,0,443.77,9405.47Zm18.625-4.35v12.74h-2.764v-4.78h-6.049v4.78h-2.764v-12.74h2.764v5.53h6.049v-5.53H462.4Zm24.433,2.35h-4.347v-2.35h11.457v2.35h-4.346v10.39h-2.764v-10.39ZM525,9401.12v12.74h-2.6l-6.269-8.57v8.57h-2.7v-12.74h2.584l6.289,8.62v-8.62H525Zm-51.781-.12a6.5,6.5,0,1,0,6.5,6.49A6.5,6.5,0,0,0,473.219,9401Zm0,10.2a3.705,3.705,0,1,1,3.709-3.71A3.708,3.708,0,0,1,473.219,9411.2ZM503.18,9401a6.5,6.5,0,1,0,6.5,6.49A6.5,6.5,0,0,0,503.18,9401Zm0,10.2a3.705,3.705,0,1,1,3.708-3.71A3.709,3.709,0,0,1,503.18,9411.2Z" transform="translate(-405 -9397)"/>
</svg>
