<svg xmlns="http://www.w3.org/2000/svg" width="223" height="61" viewBox="0 0 223 61"><defs><style>.cls-1 { fill: #070430; fill-rule: evenodd; }</style></defs><path id="hone.svg" class="cls-1" d="M1080.04 8598c-17.08 0-31.04 13.72-31.04 30.5 0 16.85 13.96 30.51 31.04 30.51s31.04-13.72 31.04-30.51c.07-16.78-13.89-30.5-31.04-30.5m0 1.76c16.15 0 29.25 12.87 29.25 28.74s-13.1 28.74-29.25 28.74-29.25-12.87-29.25-28.74c0-15.8 13.17-28.74 29.25-28.74m-3.25 13.39v5.03h-2v-11.95h2v5.09h6.58v-5.09h1.92v11.95h-1.92v-5.03h-6.58zm0 32.6v5.03h-2v-12.02h2v5.16h6.58v-5.16h1.92v12.02h-1.92v-5.03h-6.58zm-12.3-14.05h5.12v1.96h-12.17v-1.96h5.19v-6.46h-5.19v-1.9h12.17v1.9h-5.12v6.46zm33.1 0h5.12v1.96h-12.17v-1.96h5.19v-6.46h-5.19v-1.9h12.17v1.9h-5.12v6.46zm60.03-5.44v-10.82h4.29v25.73h-4.29v-10.98h-14.33v10.98h-4.28v-25.73h4.28v10.82h14.33zm76.87 14.91l-14.77-18.63-.06 18.63h-4.29v-25.73h3.9l14.77 18.63v-18.63h4.29v25.73h-3.84zm18.45 0v-25.73h19.06v3.94h-14.78v6.88h14.27v3.88h-14.27v7.1h14.78v3.93h-19.06zm-64.75-3.38a9.35 9.35 0 1 1 9.64-9.35 9.538 9.538 0 0 1-9.64 9.35m0-22.78a13.5 13.5 0 1 0 13.93 13.49 13.7 13.7 0 0 0-13.93-13.49" transform="translate(-1049 -8598)"/></svg>