<svg xmlns="http://www.w3.org/2000/svg" width="18" height="18" viewBox="0 0 18 18"><defs><style>.cls-1 { fill: #5b616e; fill-rule: evenodd; opacity: 0.7; }</style></defs><path id="linkedin.svg" class="cls-1" d="M998.082 7536.01h-3.862v-12.15h3.862v12.15zm-1.93-13.81h-.026a2.2 2.2 0 1 1 .026 0zm15.858 13.81h-3.87v-6.5c0-1.64-.56-2.75-1.95-2.75a2.119 2.119 0 0 0-1.98 1.48 2.91 2.91 0 0 0-.13.98v6.79h-3.86s.05-11.01 0-12.15h3.86v1.72a3.822 3.822 0 0 1 3.48-2.01c2.54 0 4.45 1.74 4.45 5.47v6.97zm-7.95-10.39a.076.076 0 0 1 .02-.04v.04h-.02z" transform="translate(-994 -7518)"/></svg>