<svg xmlns="http://www.w3.org/2000/svg" width="120" height="31" viewBox="0 0 120 31"><defs><style>.cls-1 { fill: #070430; fill-rule: evenodd; }</style></defs><path id="logo.svg" class="cls-1" d="M10 0l-10 5.306 10 4.781v10.5l-10-4.863v10.46l10 4.824v-10.424l10-5.305v-9.979z"/><path class="cls-1" d="M446.574 39.451c0 2.8-1.9 4.386-4.948 4.386h-2.864v4.026h-2.762v-12.739h5.628c3.043 0 4.946 1.523 4.946 4.327zm-2.8.02a1.948 1.948 0 0 0-2.144-2.063h-2.864v4.166h2.864a1.968 1.968 0 0 0 2.14-2.103zm18.626-4.347v12.738h-2.764v-4.786h-6.049v4.786h-2.764v-12.738h2.764v5.528h6.049v-5.528h2.764zm24.433 2.344h-4.347v-2.344h11.457v2.344h-4.346v10.394h-2.764v-10.394zm38.167-2.344v12.738h-2.6l-6.269-8.571v8.572h-2.7v-12.739h2.584l6.289 8.613v-8.613h2.696zm-51.781-.124a6.5 6.5 0 1 0 6.5 6.5 6.5 6.5 0 0 0-6.5-6.5zm0 10.205a3.708 3.708 0 1 1 3.709-3.708 3.708 3.708 0 0 1-3.709 3.703zm29.961-10.205a6.5 6.5 0 1 0 6.5 6.5 6.5 6.5 0 0 0-6.5-6.5zm0 10.205a3.708 3.708 0 1 1 3.708-3.708 3.709 3.709 0 0 1-3.708 3.703z" transform="translate(-405 -31)"/></svg>