<svg xmlns="http://www.w3.org/2000/svg" width="22" height="32" viewBox="0 0 22 32"><defs><style>.cls-1 { fill: #4724f4; fill-rule: evenodd; }</style></defs><path id="private-network.svg" class="cls-1" d="M1272 5331a10.981 10.981 0 0 1-9-17.3v-6.41c0-4.58 4.03-8.29 9-8.29s9 3.71 9 8.29v6.41a10.981 10.981 0 0 1-9 17.3zm7-23.74c0-3.46-3.13-6.26-7-6.26s-7 2.8-7 6.26v4.32a10.786 10.786 0 0 1 14 0v-4.32zm-7 3.74a9 9 0 1 0 9 9 9 9 0 0 0-9-9zm0 12a1 1 0 0 1-1-1v-4a1 1 0 0 1 2 0v4a1 1 0 0 1-1 1z" transform="translate(-1261 -5299)"/></svg>