<svg xmlns="http://www.w3.org/2000/svg" width="32" height="32" viewBox="0 0 32 32"><defs><style>.cls-1 { fill: #4724f4; fill-rule: evenodd; }</style></defs><path id="service-discovery.svg" class="cls-1" d="M722.714 5331.71a.955.955 0 0 1-1.346 0l-8.914-8.91a13.177 13.177 0 1 1 1.347-1.35l8.913 8.92a.944.944 0 0 1 0 1.34zm-7.714-18.71a11 11 0 1 0-11 11 11 11 0 0 0 11-11zm-12.6 4.57a.707.707 0 0 1-.088.14.927.927 0 0 1-1.328 0 .707.707 0 0 1-.088-.14l-3.63-3.91a1.027 1.027 0 0 1 0-1.38.864.864 0 0 1 1.283 0l3.1 3.34 7.746-7.34a.864.864 0 0 1 1.283 0 1.027 1.027 0 0 1 0 1.38z" transform="translate(-691 -5300)"/></svg>