<svg xmlns="http://www.w3.org/2000/svg" width="48.03" height="48" viewBox="0 0 48.03 48"><defs><style>.cls-1 { fill: #00aff8; fill-rule: evenodd; }</style></defs><path id="simple.svg" class="cls-1" d="M1128.13 1716.91a1.2 1.2 0 0 0 2.39-.17 11.975 11.975 0 1 0-12.78 12.78h.09a1.2 1.2 0 0 0 .09-2.39 9.576 9.576 0 1 1 10.21-10.22zm-7.08 22.14a1.218 1.218 0 0 0 1.05-1.34 1.2 1.2 0 0 0-1.34-1.04 19.2 19.2 0 1 1 17.05-19.07 17.159 17.159 0 0 1-.14 2.16 1.2 1.2 0 0 0 2.39.28 21.6 21.6 0 1 0-21.46 19.16 22.073 22.073 0 0 0 2.45-.15zm19.15-14.19a1.181 1.181 0 0 0-.83-1.01l-19.2-6.19a1.218 1.218 0 0 0-1.22.29 1.2 1.2 0 0 0-.29 1.22l6.19 19.2a1.2 1.2 0 0 0 1.01.82.615.615 0 0 0 .13.01 1.2 1.2 0 0 0 1.04-.6l3.98-6.9 11.94 11.95a1.207 1.207 0 0 0 1.7 0 1.2 1.2 0 0 0 0-1.7c-16.75-16.74-11.94-11.94-11.94-11.94l6.89-3.98a1.208 1.208 0 0 0 .6-1.17zm-18.54-4.2l14.4 4.64-5.91 3.41a.172.172 0 0 0-.06.06 1.992 1.992 0 0 0-.19.12 2.141 2.141 0 0 0-.13.19.374.374 0 0 1-.06.07l-3.4 5.91z" transform="translate(-1097 -1696)"/></svg>