<svg xmlns="http://www.w3.org/2000/svg" width="18" height="15" viewBox="0 0 18 15"><defs><style>.cls-1 { fill: #5b616e; fill-rule: evenodd; opacity: 0.7; }</style></defs><path id="twitter.svg" class="cls-1" d="M964.158 7524.74c.234 5.32-3.64 11.26-10.5 11.26a10.3 10.3 0 0 1-5.661-1.7 7.316 7.316 0 0 0 5.468-1.57 3.713 3.713 0 0 1-3.45-2.63 3.731 3.731 0 0 0 1.668-.06 3.777 3.777 0 0 1-2.963-3.76 3.656 3.656 0 0 0 1.673.47 3.845 3.845 0 0 1-1.143-5.05 10.4 10.4 0 0 0 7.612 3.95 3.764 3.764 0 0 1 3.6-4.64 3.661 3.661 0 0 1 2.7 1.19 7.142 7.142 0 0 0 2.345-.92 3.777 3.777 0 0 1-1.623 2.1 7.562 7.562 0 0 0 2.121-.6 7.532 7.532 0 0 1-1.847 1.96z" transform="translate(-948 -7521)"/></svg>