<svg xmlns="http://www.w3.org/2000/svg" width="32" height="32" viewBox="0 0 32 32"><defs><style>.cls-1 { fill: #4724f4; fill-rule: evenodd; }</style></defs><path id="vault-security.svg" class="cls-1" d="M709.5 5611a1.5 1.5 0 1 1-1.5 1.5 1.5 1.5 0 0 1 1.5-1.5zm8.5 17h-24a4 4 0 0 1-4-4v-24a4 4 0 0 1 4-4h24a4 4 0 0 1 4 4v24a4 4 0 0 1-4 4zm2-28a2 2 0 0 0-2-2h-24a2 2 0 0 0-2 2v24a2 2 0 0 0 2 2h24a2 2 0 0 0 2-2v-24zm-14 22a10 10 0 1 1 10-10 10 10 0 0 1-10 10zm0-18a8 8 0 1 0 8 8 8 8 0 0 0-8-8z" transform="translate(-690 -5596)"/></svg>