<svg xmlns="http://www.w3.org/2000/svg" width="36" height="48" viewBox="0 0 36 48"><defs><style>.cls-1 { fill: #fc3255; fill-rule: evenodd; }</style></defs><path id="vendor-lock.svg" class="cls-1" d="M1134 1375h-30a3.009 3.009 0 0 1-3-3v-22a3.009 3.009 0 0 1 3-3h1v-6a14 14 0 1 1 28 0v2h-2v-2a12 12 0 0 0-24 0v6h27a3.009 3.009 0 0 1 3 3v22a3.009 3.009 0 0 1-3 3zm1-25a1 1 0 0 0-1-1h-30a1 1 0 0 0-1 1v22a1 1 0 0 0 1 1h30a1 1 0 0 0 1-1v-22zm-15 14.86v3.14a1 1 0 0 1-2 0v-3.14a4 4 0 1 1 2 0zm-1-5.86a2 2 0 1 0 2 2 2.006 2.006 0 0 0-2-2z" transform="translate(-1101 -1327)"/></svg>